PathFileType	4	(X/Y/Z)	/Users/itak/Documents/Research/Walk-IL/dataset/trc/00202_00008.trc
DataRate	CameraRate	NumFrames	NumMarkers	Units	OrigDataRate	OrigDataStartFrame	OrigNumFrames
100.000000	100.000000	4	53	mm	100.000000	0	498
Frame#	Time	RPSI			LPSI			L3			STRN			T10			C7			CLAV			RBAK			LBAK			LSHO			LUPA			LAEL			LAOL			LWTS			LWPS			LFRA			LIFD			LHPS			LHTS			RSHO			RUPA			RAEL			RAOL			RWTS			RWPS			RFRA			RIFD			RHTS			RHPS			RBHD			LFHD			RFHD			LBHD			LHIP			RHIP			RASI			LASI			LKNE			LTHI			LANK			LTIP			LTOE			LMT1			LMT5			LHEE			RKNE			RTHI			RANK			RTIP			RTOE			RMT1			RMT5			RHEE			
		X1	Y1	Z1	X2	Y2	Z2	X3	Y3	Z3	X4	Y4	Z4	X5	Y5	Z5	X6	Y6	Z6	X7	Y7	Z7	X8	Y8	Z8	X9	Y9	Z9	X10	Y10	Z10	X11	Y11	Z11	X12	Y12	Z12	X13	Y13	Z13	X14	Y14	Z14	X15	Y15	Z15	X16	Y16	Z16	X17	Y17	Z17	X18	Y18	Z18	X19	Y19	Z19	X20	Y20	Z20	X21	Y21	Z21	X22	Y22	Z22	X23	Y23	Z23	X24	Y24	Z24	X25	Y25	Z25	X26	Y26	Z26	X27	Y27	Z27	X28	Y28	Z28	X29	Y29	Z29	X30	Y30	Z30	X31	Y31	Z31	X32	Y32	Z32	X33	Y33	Z33	X34	Y34	Z34	X35	Y35	Z35	X36	Y36	Z36	X37	Y37	Z37	X38	Y38	Z38	X39	Y39	Z39	X40	Y40	Z40	X41	Y41	Z41	X42	Y42	Z42	X43	Y43	Z43	X44	Y44	Z44	X45	Y45	Z45	X46	Y46	Z46	X47	Y47	Z47	X48	Y48	Z48	X49	Y49	Z49	X50	Y50	Z50	X51	Y51	Z51	X52	Y52	Z52	X53	Y53	Z53	

1	0	-1719.02197265625	1056.728515625	-541.2625122070312	-1714.087158203125	1053.88916015625	-666.6723022460938	-1715.06640625	1091.95361328125	-602.221435546875	-1458.512329101562	1301.480346679688	-609.0970458984375	-1752.15283203125	1248.211791992188	-610.8383178710938	-1686.376586914062	1517.8076171875	-626.3356323242188	-1484.08349609375	1415.690673828125	-621.7659912109375	-1753.828247070312	1344.9833984375	-513.53173828125	-1693.74658203125	1491.791381835938	-727.8743286132812	-1615.388061523438	1477.123046875	-805.8458862304688	-1643.290771484375	1343.321899414062	-877.654296875	-1618.163818359375	1123.320922851562	-892.0820922851562	-1672.150756835938	1108.799560546875	-823.7816162109375	-1505.202758789062	895.0504150390625	-844.2225952148438	-1580.257934570312	871.6724243164062	-893.3887329101562	-1599.408935546875	1013.262023925781	-902.4513549804688	-1490.399169921875	714.7600708007812	-814.6011352539062	-1556.381713867188	802.9913330078125	-886.33642578125	-1488.754638671875	817.2645874023438	-861.91357421875	-1621.872924804688	1499.658203125	-444.5696411132812	-1639.869506835938	1433.531616210938	-373.5341796875	-1644.345947265625	1143.275146484375	-318.8724365234375	-1652.308471679688	1135.125366210938	-416.8297729492188	-1504.883666992188	917.7596435546875	-339.0408935546875	-1577.749877929688	900.6870727539062	-288.5729370117188	-1619.287353515625	1072.0654296875	-300.217041015625	-1486.86376953125	728.9696044921875	-358.9867553710938	-1476.80712890625	825.8004150390625	-329.8502502441406	-1547.932373046875	818.7998046875	-289.0533447265625	-1626.595458984375	1670.121337890625	-539.1736450195312	-1520.641479492188	1740.433959960938	-717.6622924804688	-1478.155639648438	1746.705200195312	-595.3203125	-1677.529418945312	1669.901611328125	-666.2301635742188	-1605.6630859375	991.482177734375	-780.7974853515625	-1581.700927734375	1018.237670898438	-414.9385375976562	-1480.338012695312	1046.452514648438	-467.4795837402344	-1483.14453125	1028.891479492188	-724.4688720703125	-1595.653198242188	495.5275573730469	-739.373046875	-1586.458129882812	637.7694091796875	-769.8154907226562	-1679.702880859375	40.0730094909668	-737.5349731445312	-1634.79296875	275.1435241699219	-751.2351684570312	-1458.517822265625	39.69559097290039	-718.8084716796875	-1508.170288085938	40.40158081054688	-669.76904296875	-1572.353149414062	32.69528961181641	-780.8010864257812	-1727.553588867188	39.07679748535156	-666.54541015625	-1570.285400390625	516.4500732421875	-432.0843505859375	-1521.61083984375	781.4434814453125	-401.0516052246094	-1663.244506835938	36.85065078735352	-428.894775390625	-1564.298217773438	396.8911743164062	-450.3634948730469	-1442.178100585938	41.09201049804688	-475.1540222167969	-1500.542846679688	38.43767929077148	-517.4197387695312	-1549.842407226562	33.82899856567383	-399.4175415039062	-1717.822021484375	32.65729141235352	-493.6418151855469	
2	0.01	-1719.071533203125	1056.735107421875	-541.2890014648438	-1714.162963867188	1053.915771484375	-666.705322265625	-1715.0849609375	1091.972900390625	-602.2367553710938	-1458.563598632812	1301.476806640625	-609.05712890625	-1752.1640625	1248.239624023438	-610.8356323242188	-1686.3369140625	1517.822875976562	-626.2781982421875	-1484.07080078125	1415.70751953125	-621.701416015625	-1753.849853515625	1344.993774414062	-513.4957885742188	-1693.716552734375	1491.8525390625	-727.814453125	-1615.3466796875	1477.168334960938	-805.7923583984375	-1643.233520507812	1343.384765625	-877.6192626953125	-1618.1015625	1123.382446289062	-892.0468139648438	-1672.15380859375	1108.881591796875	-823.79345703125	-1505.432495117188	894.984130859375	-844.0863647460938	-1580.291259765625	871.7074584960938	-893.3526611328125	-1599.36865234375	1013.319519042969	-902.4056396484375	-1490.682373046875	714.67919921875	-814.4554443359375	-1556.550903320312	803.0237426757812	-886.2777099609375	-1488.93798828125	817.2432861328125	-861.762451171875	-1621.885498046875	1499.66259765625	-444.5176696777344	-1639.8671875	1433.53466796875	-373.4798889160156	-1644.212768554688	1143.318969726562	-318.6264953613281	-1652.28662109375	1135.112548828125	-416.5993957519531	-1504.681030273438	917.8404541015625	-338.7552185058594	-1577.51171875	900.7772216796875	-288.2513122558594	-1619.134033203125	1072.125122070312	-299.9627380371094	-1486.650268554688	729.044189453125	-358.6719055175781	-1476.70849609375	825.8504638671875	-329.5820922851562	-1547.668823242188	818.8896484375	-288.7051391601562	-1626.437133789062	1670.150512695312	-539.0360717773438	-1520.509643554688	1740.444213867188	-717.548583984375	-1477.943481445312	1746.614379882812	-595.2091064453125	-1677.391967773438	1670.006103515625	-666.06787109375	-1605.652587890625	991.5077514648438	-780.8005981445312	-1579.287963867188	1018.138916015625	-414.4166259765625	-1480.429443359375	1046.449462890625	-467.4490051269531	-1483.1455078125	1028.909057617188	-724.4482421875	-1595.59033203125	495.5307312011719	-739.3601684570312	-1586.390747070312	637.7622680664062	-769.797119140625	-1679.697875976562	40.08829116821289	-737.5283203125	-1634.751098632812	275.1322021484375	-751.2120971679688	-1458.51806640625	39.69694900512695	-718.8109741210938	-1508.161376953125	40.39830780029297	-669.7597045898438	-1572.350463867188	32.70664215087891	-780.7906494140625	-1727.554809570312	39.07725524902344	-666.5438232421875	-1570.3486328125	516.4616088867188	-432.0538024902344	-1521.626098632812	781.4467163085938	-401.0327758789062	-1663.244262695312	36.8433837890625	-428.8872680664062	-1564.346069335938	396.8860778808594	-450.3272705078125	-1442.182495117188	41.09574890136719	-475.1511840820312	-1500.551513671875	38.43674850463867	-517.4126586914062	-1549.846313476562	33.82522201538086	-399.4136657714844	-1717.81982421875	32.64889526367188	-493.6308898925781	
3	0.02	-1719.135375976562	1056.743774414062	-541.3286743164062	-1714.25244140625	1053.953247070312	-666.751220703125	-1715.108154296875	1091.999267578125	-602.2603149414062	-1458.625732421875	1301.473754882812	-609.0037841796875	-1752.177734375	1248.276000976562	-610.8350219726562	-1686.284301757812	1517.842407226562	-626.204833984375	-1484.052734375	1415.729248046875	-621.6124267578125	-1753.877197265625	1345.00830078125	-513.4514770507812	-1693.673461914062	1491.930297851562	-727.7391967773438	-1615.29052734375	1477.226196289062	-805.7211303710938	-1643.158081054688	1343.465454101562	-877.5732421875	-1618.020629882812	1123.462158203125	-892	-1672.159057617188	1108.988403320312	-823.8089599609375	-1505.713623046875	894.9039916992188	-843.905517578125	-1580.338500976562	871.75341796875	-893.3038330078125	-1599.318603515625	1013.393737792969	-902.3455810546875	-1491.052856445312	714.578125	-814.2608642578125	-1556.771484375	803.0640869140625	-886.1996459960938	-1489.173828125	817.2125854492188	-861.5602416992188	-1621.903930664062	1499.66943359375	-444.4493103027344	-1639.866577148438	1433.541625976562	-373.4104919433594	-1644.046264648438	1143.379028320312	-318.3038635253906	-1652.25390625	1135.098022460938	-416.2913818359375	-1504.406860351562	917.956298828125	-338.3890991210938	-1577.189453125	900.8998413085938	-287.833251953125	-1618.93115234375	1072.206420898438	-299.6273193359375	-1486.346313476562	729.156982421875	-358.2668151855469	-1476.539916992188	825.93310546875	-329.2302856445312	-1547.311401367188	819.0135498046875	-288.2553100585938	-1626.229614257812	1670.182373046875	-538.854736328125	-1520.326416015625	1740.459594726562	-717.3919067382812	-1477.673461914062	1746.4931640625	-595.054931640625	-1677.208740234375	1670.145751953125	-665.8548583984375	-1605.6337890625	991.542724609375	-780.8068237304688	-1576.592407226562	1018.023559570312	-413.840576171875	-1480.556884765625	1046.441650390625	-467.4105834960938	-1483.143676757812	1028.931518554688	-724.4205322265625	-1595.503662109375	495.5326538085938	-739.3423461914062	-1586.3017578125	637.7528076171875	-769.7748413085938	-1679.689575195312	40.10837554931641	-737.518310546875	-1634.691772460938	275.1155700683594	-751.179931640625	-1458.517211914062	39.69839096069336	-718.8134155273438	-1508.150268554688	40.39391326904297	-669.7467651367188	-1572.3466796875	32.72270965576172	-780.7758178710938	-1727.555908203125	39.07759857177734	-666.5399780273438	-1570.43359375	516.4762573242188	-432.0130004882812	-1521.631469726562	781.458251953125	-401.0087585449219	-1663.244506835938	36.83368682861328	-428.8770446777344	-1564.408813476562	396.8796691894531	-450.2796936035156	-1442.18896484375	41.10057067871094	-475.1473999023438	-1500.563354492188	38.43549728393555	-517.4047241210938	-1549.852416992188	33.81949234008789	-399.408203125	-1717.817260742188	32.63532257080078	-493.6142883300781	
4	0.03	-1719.2109375	1056.754516601562	-541.3828125	-1714.348388671875	1054.002319335938	-666.8101196289062	-1715.134887695312	1092.032470703125	-602.2932739257812	-1458.693969726562	1301.472045898438	-608.9378662109375	-1752.19287109375	1248.319946289062	-610.8380126953125	-1686.219970703125	1517.865356445312	-626.1187744140625	-1484.029174804688	1415.7548828125	-621.4991455078125	-1753.9091796875	1345.027221679688	-513.4017944335938	-1693.6162109375	1492.021240234375	-727.6524658203125	-1615.2197265625	1477.294555664062	-805.6337280273438	-1643.065795898438	1343.561279296875	-877.5172729492188	-1617.923583984375	1123.55712890625	-891.942626953125	-1672.167236328125	1109.116455078125	-823.8275146484375	-1506.02880859375	894.8154296875	-843.6841430664062	-1580.400512695312	871.8091430664062	-893.24267578125	-1599.261352539062	1013.481872558594	-902.2728271484375	-1491.500244140625	714.4622192382812	-814.0218505859375	-1557.0361328125	803.1100463867188	-886.103759765625	-1489.453247070312	817.1719360351562	-861.310791015625	-1621.928955078125	1499.6787109375	-444.3663024902344	-1639.869018554688	1433.5537109375	-373.3288269042969	-1643.854614257812	1143.455200195312	-317.913330078125	-1652.209228515625	1135.083374023438	-415.9109802246094	-1504.063842773438	918.1098022460938	-337.9568481445312	-1576.786010742188	901.0538330078125	-287.3323669433594	-1618.683349609375	1072.30859375	-299.2192077636719	-1485.94775390625	729.3125	-357.7866516113281	-1476.284057617188	826.0548706054688	-328.8057250976562	-1546.86279296875	819.1715698242188	-287.7198791503906	-1625.979125976562	1670.213500976562	-538.6339111328125	-1520.0908203125	1740.480346679688	-717.1923217773438	-1477.356079101562	1746.34375	-594.8572387695312	-1676.983276367188	1670.318359375	-665.5972900390625	-1605.604736328125	991.5868530273438	-780.817138671875	-1573.897583007812	1017.9013671875	-413.2723693847656	-1480.720092773438	1046.427612304688	-467.3663024902344	-1483.1376953125	1028.958129882812	-724.38623046875	-1595.393310546875	495.5321655273438	-739.3193969726562	-1586.193603515625	637.7412109375	-769.750244140625	-1679.677490234375	40.13284683227539	-737.5045166015625	-1634.614379882812	275.0931396484375	-751.1385498046875	-1458.514770507812	39.69971466064453	-718.8153076171875	-1508.137329101562	40.3883171081543	-669.7304077148438	-1572.341674804688	32.7436408996582	-780.75634765625	-1727.556640625	39.07778930664062	-666.5330200195312	-1570.538940429688	516.4934692382812	-431.9628295898438	-1521.618774414062	781.48193359375	-400.9807434082031	-1663.245361328125	36.8216667175293	-428.8641967773438	-1564.484741210938	396.8722229003906	-450.2222900390625	-1442.197509765625	41.1064453125	-475.142822265625	-1500.578247070312	38.43400955200195	-517.3967895507812	-1549.860595703125	33.81155776977539	-399.4011535644531	-1717.81494140625	32.61565017700195	-493.59130859375	
